<svg version="1.1" viewBox="0.0 0.0 960.0 720.0" fill="none" stroke="none" stroke-linecap="square" stroke-miterlimit="10" xmlns:xlink="http://www.w3.org/1999/xlink" xmlns="http://www.w3.org/2000/svg"><clipPath id="p.0"><path d="m0 0l960.0 0l0 720.0l-960.0 0l0 -720.0z" clip-rule="nonzero"/></clipPath><g clip-path="url(#p.0)"><path fill="#000000" fill-opacity="0.0" d="m0 0l960.0 0l0 720.0l-960.0 0z" fill-rule="evenodd"/><defs><radialGradient id="p.1" gradientUnits="userSpaceOnUse" gradientTransform="matrix(24.12777495498114 0.0 0.0 24.12777495498114 0.0 0.0)" spreadMethod="pad" cx="19.924521575579504" cy="15.109812199664933" fx="19.924521575579504" fy="15.109812199664933" r="24.127775192260742"><stop offset="0.0" stop-color="#51ab2a"/><stop offset="1.0" stop-color="#203e13"/></radialGradient></defs><path fill="url(#p.1)" d="m11.882632 708.9229l132.90604 -209.80844l0 0c-168.86649 -103.96338 -178.63164 -267.9849 -22.559906 -378.93024c156.07172 -110.94534 426.90295 -132.5056 625.6871 -49.80951c198.78412 82.69609 260.46533 242.58469 142.49884 369.38217c-117.96649 126.797485 -376.974 179.00702 -598.37134 120.61694z" fill-rule="evenodd"/><path stroke="#000000" stroke-width="4.0" stroke-linejoin="round" stroke-linecap="butt" d="m11.882632 708.9229l132.90604 -209.80844l0 0c-168.86649 -103.96338 -178.63164 -267.9849 -22.559906 -378.93024c156.07172 -110.94534 426.90295 -132.5056 625.6871 -49.80951c198.78412 82.69609 260.46533 242.58469 142.49884 369.38217c-117.96649 126.797485 -376.974 179.00702 -598.37134 120.61694z" fill-rule="evenodd"/><g filter="url(#shadowFilter-p.2)"><use xlink:href="#p.2" transform="matrix(1.0 0.0 0.0 1.0 0.0 2.0)"/></g><defs><filter id="shadowFilter-p.2" filterUnits="userSpaceOnUse"><feGaussianBlur in="SourceAlpha" stdDeviation="2.0" result="blur"/><feComponentTransfer in="blur" color-interpolation-filters="sRGB"><feFuncR type="linear" slope="0" intercept="1.0"/><feFuncG type="linear" slope="0" intercept="1.0"/><feFuncB type="linear" slope="0" intercept="0.0"/><feFuncA type="linear" slope="0.5" intercept="0"/></feComponentTransfer></filter></defs><g id="p.2"><defs><radialGradient id="p.3" gradientUnits="userSpaceOnUse" gradientTransform="matrix(19.97832343196573 0.0 0.0 19.97832343196573 0.0 0.0)" spreadMethod="pad" cx="24.02492342769631" cy="15.156173614068509" fx="24.02492342769631" fy="15.156173614068509" r="19.978322982788086"><stop offset="0.0" stop-color="#ffffff"/><stop offset="1.0" stop-color="#b3b3b3"/></radialGradient></defs><path fill="url(#p.3)" d="m205.98248 129.69922l-20.242416 91.114426l15.451706 0l25.932785 -91.114426zm-21.861786 0.6504364c-7.9620056 0 -16.29889 4.3723297 -25.01062 13.117004c-8.696747 8.744675 -16.291412 20.34401 -22.78395 34.79802c-6.477585 14.453995 -10.421089 29.648758 -11.830574 45.584305c-1.1995392 13.695175 -0.5547714 23.668427 1.9342804 29.919785c2.489067 6.21521 7.5346756 9.322845 15.136818 9.322845c0.5398102 -6.106842 0.629776 -10.7682495 0.26989746 -13.984268c-0.35986328 -3.2160034 -0.22491455 -8.401382 0.40486145 -15.556107c1.4544525 -16.405304 4.190933 -30.172745 8.209412 -41.302322c4.033478 -11.129578 7.2797546 -17.796494 9.738846 -20.000717l0 0l-39.202797 221.74246l25.775337 0l46.287643 -262.39435c-4.588272 -0.8311157 -7.5646515 -1.2466583 -8.929153 -1.2466583zm67.02989 81.57477c-7.4072266 0 -12.167938 3.1979523 -14.28215 9.593857l2.3391266 -7.913574l-25.797836 0l-31.758087 180.38596l25.77533 0l19.747604 -112.14499c1.7093506 -8.274933 3.5011902 -14.634674 5.375473 -19.079285c1.8742981 -4.4446106 3.6436462 -6.6669006 5.308014 -6.6669006c0.8396759 0 1.0270996 2.5836487 0.5622864 7.750946c-0.19493103 2.3126526 -0.50231934 4.553009 -0.92214966 6.7211l-21.726852 123.41913l25.797821 0l19.747604 -112.14499c1.6793823 -8.058105 3.4337158 -14.291412 5.263031 -18.69986c1.8293152 -4.4446106 3.4786987 -6.666931 4.9481506 -6.666931c1.3944702 0 1.7993164 3.3424988 1.2145386 10.027466c-0.3748474 4.191681 -1.1995544 9.937134 -2.4740906 17.23642c-1.2595215 7.2992554 -2.5790405 14.761139 -3.958496 22.38562c-0.32989502 1.5538025 -1.0046387 5.149231 -2.0242615 10.786316c-1.0046082 5.6370544 -2.0167236 11.527039 -3.0363464 17.670013c-1.0196228 6.1429443 -1.7543335 11.761932 -2.2041626 16.856964c-1.0946045 12.43045 -0.6822815 22.963837 1.23703 31.600067c1.919281 8.6362915 5.802826 12.954407 11.650635 12.954407c4.6632385 0 8.981628 -3.4508972 12.955139 -10.352692c3.9884949 -6.9378967 7.572174 -21.970093 10.750977 -45.096466l0 0c-4.363373 6.179077 -7.3622437 9.268616 -8.996643 9.268616c-1.1245728 0 -1.8068237 -0.46975708 -2.0467224 -1.4092712c-0.23989868 -0.975647 -0.23242188 -2.8546448 0.022491455 -5.6370544c0.2848816 -3.288269 0.989624 -8.058105 2.1141968 -14.309448c1.1395874 -6.2513733 2.36911 -12.791809 3.6886292 -19.621307c2.2191467 -11.454834 4.0184937 -21.247406 5.3979797 -29.377777c1.3944702 -8.166504 2.3990784 -15.700653 3.013855 -22.602448c1.2895203 -14.70694 0.5997925 -25.81845 -2.0692139 -33.334534c-2.6690063 -7.516098 -6.73999 -11.274124 -12.212921 -11.274124c-8.786713 0 -15.159332 5.5467224 -19.117828 16.640167c0.19491577 -11.310257 -4.565796 -16.965393 -14.28215 -16.965393z" fill-rule="evenodd"/><defs><radialGradient id="p.4" gradientUnits="userSpaceOnUse" gradientTransform="matrix(19.97832343196573 0.0 0.0 19.97832343196573 0.0 0.0)" spreadMethod="pad" cx="24.02492342769631" cy="15.156173614068509" fx="24.02492342769631" fy="15.156173614068509" r="19.978322982788086"><stop offset="0.0" stop-color="#ffffff"/><stop offset="1.0" stop-color="#b3b3b3"/></radialGradient></defs><path fill="url(#p.4)" d="m453.89795 142.65363c-3.8535461 0 -7.4072266 3.3063507 -10.661011 9.919052c-3.2537842 6.576584 -5.2855225 14.472076 -6.095215 23.686508c-0.8246765 9.250565 -0.17993164 17.109924 1.9342651 23.57808c2.1142273 6.4320374 5.0906067 9.648056 8.929169 9.648056c3.8235474 0 7.384735 -3.2160187 10.683502 -9.648056c3.2987366 -6.4320374 5.3604736 -14.291397 6.1851807 -23.57808c0.8096924 -9.250565 0.14242554 -17.164139 -2.00177 -23.740707c-2.1441956 -6.5765686 -5.135559 -9.864853 -8.974121 -9.864853zm-39.52179 64.28418c-3.6436462 0 -6.672516 2.3307037 -9.086609 6.992111c-2.399109 4.6614227 -3.9210205 10.641754 -4.565796 17.94104c-0.494812 5.492508 -0.3298645 10.858566 0.49484253 16.098145c0.83966064 5.2034454 2.5865173 7.8051605 5.240509 7.8051605c0.7932739 0 1.8508911 -0.30578613 3.172882 -0.9173584l0 0c-2.3317566 9.647949 -4.9263 21.173645 -7.7836304 34.577118c-3.6436462 17.091858 -7.6096497 31.437439 -11.898041 43.036804c-4.288391 11.563202 -8.044495 17.344788 -11.26828 17.344788c-1.2145386 0 -1.7018738 -1.355072 -1.4619446 -4.0651855c0.17993164 -1.951294 0.7047119 -5.474457 1.5744019 -10.569489l21.389465 -121.57623l-25.797821 0l-19.702606 112.14499c-1.6793823 7.98584 -3.4112244 14.002319 -5.1955566 18.049438c-1.7843323 4.0109863 -3.5236816 6.0164795 -5.218048 6.0164795c-0.83969116 0 -1.0346069 -2.5655823 -0.58477783 -7.696747c0.20993042 -2.3487854 0.5248108 -4.625305 0.9446411 -6.829529l21.434479 -121.68463l-25.797821 0l-19.770111 112.416016c-1.6193848 9.358948 -2.6914673 17.055695 -3.216278 23.090271c-1.3345032 15.176697 -0.7272339 26.794098 1.8218079 34.852203c2.5640259 8.021973 6.4625854 12.032959 11.695618 12.032959c8.966644 0 15.684113 -6.558502 20.152435 -19.675507l0 0c-0.23989868 1.951294 1.1020813 5.7273865 4.026001 11.328308c2.9238892 5.564789 6.934906 8.3471985 12.0329895 8.3471985c9.626404 0 18.353119 -8.563995 26.180176 -25.691986c7.8270874 -17.164124 14.259674 -37.526184 19.29776 -61.086243c5.0381165 -23.560028 8.471832 -45.674652 10.301147 -66.34386c0.8546753 -9.756454 0.6972351 -18.175903 -0.47232056 -25.258377c-1.1695557 -7.1185913 -3.8160706 -10.677887 -7.939514 -10.677887zm128.76593 -61.19464l-27.304749 8.618195l-30.44574 172.26471l0 0c-1.7752991 7.654602 -3.5505981 13.216339 -5.325897 16.685242c-2.2191772 4.336212 -4.2809143 6.504303 -6.1851807 6.504303c-1.2895203 0 -2.046753 -0.3071289 -2.2716675 -0.92144775c-0.22491455 -0.61428833 -0.23239136 -2.0958557 -0.022491455 -4.4446106c0.2849121 -3.2160034 0.71224976 -6.2332764 1.2820435 -9.051819l16.711212 -94.583374l8.321899 0l4.6332397 -27.209656l-8.231903 0l9.558929 -53.87729l-27.259796 8.618195l-8.074463 45.259094l-4.610779 0l-4.6332703 27.209656l4.520813 0l-14.687073 83.0448l0 0c-1.9825745 9.094177 -3.965149 15.578247 -5.947754 19.452148c-2.2191772 4.336212 -4.280884 6.504303 -6.1851807 6.504303c-1.2895203 0 -2.0467224 -0.3071289 -2.271637 -0.92144775c-0.22491455 -0.61428833 -0.23242188 -2.0958557 -0.022491455 -4.4446106c0.2848816 -3.2160034 0.71221924 -6.251343 1.2820129 -9.106018l21.434448 -121.73883l-25.797821 0l-19.77008 112.416016c-1.6193848 9.358948 -2.6914978 17.055695 -3.2163086 23.090271c-1.3344727 15.176697 -0.72720337 26.794098 1.8218384 34.852203c2.5640259 8.021973 6.462555 12.032959 11.695618 12.032959c5.832794 0 12.085449 -4.6795044 18.757965 -14.038452c1.476593 -2.0664673 2.9674683 -4.675537 4.472595 -7.8272705l0 0c0.41607666 3.718628 1.0727539 6.996216 1.9700317 9.832764c2.5640564 8.021973 6.4625854 12.032959 11.695618 12.032959c4.997284 0 10.302765 -3.4348755 15.916412 -10.304626l0 0l-1.4667664 8.299133l25.797821 0l20.489838 -115.99338c1.5443726 -6.8656616 3.1712646 -12.159424 4.880615 -15.881317c1.7094116 -3.7580566 3.2388306 -5.637085 4.588318 -5.637085c1.3944702 0 1.7993164 3.3424988 1.2145386 10.027466c-0.37487793 4.191681 -1.199585 9.937134 -2.47406 17.23642c-1.2595215 7.2992554 -2.5790405 14.761139 -3.9585571 22.38562c-0.32983398 1.5538025 -1.0045776 5.149231 -2.024231 10.786316c-1.0045776 5.6370544 -2.0167236 11.527039 -3.036316 17.670013c-1.0196533 6.1429443 -1.7543945 11.761932 -2.2042236 16.856964c-1.0945435 12.43045 -0.682251 22.963837 1.2370605 31.600067c1.9342651 8.6362915 5.81781 12.954407 11.650635 12.954407c4.6782227 0 9.004089 -3.4508972 12.9776 -10.352692c3.9735107 -6.9378967 7.5496826 -21.970093 10.728516 -45.096466l0 0c-4.3634033 6.179077 -7.3622437 9.268616 -8.996643 9.268616c-1.1095581 0 -1.7843018 -0.46975708 -2.024231 -1.4092712c-0.2399292 -0.975647 -0.23242188 -2.8546448 0.022460938 -5.6370544c0.2849121 -3.288269 0.98968506 -8.058105 2.1142578 -14.309448c1.1395264 -6.2513733 2.3690796 -12.791809 3.6885986 -19.621307c2.2191772 -11.454834 4.0184937 -21.247406 5.397949 -29.377777c1.3944702 -8.166504 2.399109 -15.700653 3.013916 -22.602448c1.2894897 -14.70694 0.59228516 -25.81845 -2.0917358 -33.334534c-2.684021 -7.516098 -6.7474976 -11.274124 -12.19043 -11.274124c-7.0323486 0 -10.878418 0.81303406 -11.538208 2.4391022l12.392883 -68.94559z" fill-rule="evenodd"/><defs><radialGradient id="p.5" gradientUnits="userSpaceOnUse" gradientTransform="matrix(19.97832343196573 0.0 0.0 19.97832343196573 0.0 0.0)" spreadMethod="pad" cx="24.02492342769631" cy="15.156173614068509" fx="24.02492342769631" fy="15.156173614068509" r="19.978322982788086"><stop offset="0.0" stop-color="#ffffff"/><stop offset="1.0" stop-color="#b3b3b3"/></radialGradient></defs><path fill="url(#p.5)" d="m838.9685 128.34416l-28.54181 9.106018l-27.1698 179.62712l17.273499 0l38.43811 -188.73314zm-146.58453 116.42699c0.7797241 0 1.2745361 0.61428833 1.484436 1.8428802c0.22491455 1.1924591 0.24743652 3.2160187 0.06750488 6.070694c-3.013916 2.8185272 -5.060608 10.316528 -6.1401978 22.49405c-1.034668 11.6716 -0.4798584 18.121674 1.6643677 19.35028c-1.1845703 8.130371 -2.991394 17.164124 -5.420471 27.101257c-2.4290771 9.90097 -4.7682495 17.362854 -7.017395 22.38565c-2.2491455 4.986603 -4.0409546 7.4799194 -5.3754883 7.4799194c-1.649353 0 -2.6689453 -1.0298462 -3.058838 -3.0895386c-0.38983154 -2.0596924 -0.17993164 -7.714813 0.62976074 -16.965363c0.9446411 -10.659821 2.8864136 -23.108337 5.8253174 -37.34555c2.9389038 -14.273315 6.0652466 -26.053314 9.378967 -35.340027c3.3137817 -9.32283 5.9677734 -13.984253 7.962036 -13.984253zm-95.666565 169.58453c-1.4467163 8.043579 -2.8452148 13.848267 -4.1956177 17.414124c-1.3944702 3.7580566 -2.376587 5.6370544 -2.9464111 5.6370544c-0.6147461 0 -1.0421143 -0.39749146 -1.2819824 -1.1924438c-0.22491455 -0.7949524 -0.2849121 -1.752533 -0.17993164 -2.8727417c0.64453125 -7.3179016 3.5125122 -13.646545 8.603943 -18.985992zm97.55585 -203.73212c-9.4314575 0 -17.865784 7.2450714 -25.30304 21.735214c-7.42218 14.45401 -13.337463 31.347122 -17.745789 50.679337c-4.408386 19.296112 -7.3172607 36.875793 -8.726746 52.739044c-0.06665039 0.7584839 -0.12945557 1.509613 -0.18847656 2.253357l0 0c-1.9406128 7.155365 -3.7669678 12.5833435 -5.479004 16.283905c-2.9089355 6.287506 -4.775696 9.738373 -5.600403 10.352692l26.674988 -151.06241l-25.797852 0l-20.174927 114.04208c-1.5593872 7.0463257 -3.223755 12.502716 -4.993103 16.369171c-1.7693481 3.866455 -3.4187012 5.799652 -4.948181 5.799652c-0.83966064 0 -1.0346069 -2.5655823 -0.58477783 -7.696747c0.20996094 -2.3487854 0.5248413 -4.625305 0.9446411 -6.829529l21.43451 -121.68463l-25.797852 0l-19.77008 112.416016c-1.6193848 9.358948 -2.6914673 17.055695 -3.2163086 23.090271c-1.3344727 15.176697 -0.7272339 26.794098 1.8218384 34.852203c2.5640259 8.021973 6.4625854 12.032959 11.695618 12.032959c0.24572754 0 0.49194336 -0.008728027 0.73864746 -0.0262146l0 0c-1.5925293 2.0736694 -3.1582642 4.3046875 -4.6971436 6.693115c-5.5029907 8.600128 -8.914185 20.380157 -10.233704 35.340057c-1.1095581 12.719513 -0.17242432 22.43982 2.8114624 29.16095c2.9989014 6.7211 7.0323486 10.081665 12.100464 10.081665c6.3425903 0 12.4453125 -4.553009 18.308105 -13.659058c5.8778076 -9.069885 10.825989 -25.222229 14.844482 -48.45703l3.486145 -19.783905c4.8881836 -2.890808 10.076233 -9.340912 15.564209 -19.350311c0.5629883 -1.0277405 1.1274414 -2.1440125 1.6932373 -3.3487854l0 0c0.5800171 3.0473022 1.3274536 5.7716064 2.2423706 8.172821c3.7036133 9.684174 9.326538 14.526276 16.868652 14.526276c6.237671 0 12.370361 -4.49881 18.398132 -13.496429c6.0427246 -8.99762 11.37323 -21.500336 15.991516 -37.50815c4.6332397 -16.007812 8.044495 -32.75638 10.233643 -50.245728c1.6686401 -0.62213135 3.4298096 -1.5629272 5.2835693 -2.8222961l0 0l-6.110901 34.74759c-1.6193848 9.358948 -2.6915283 17.055695 -3.2163086 23.090271c-1.3344727 15.176697 -0.7272339 26.794098 1.8218384 34.852203c2.5640259 8.021973 6.4625244 12.032959 11.695618 12.032959c4.168396 0 8.419312 -2.4933167 12.752686 -7.47995c4.2478027 -4.906555 7.0217896 -9.95108 8.32196 -15.133575l0 0c-0.3474121 1.9283752 0.54473877 6.069519 2.6764526 12.423462c2.2791138 6.7933655 5.742798 10.190063 10.391052 10.190063c4.8432007 0 9.281555 -3.4689636 13.315002 -10.406891c2.48938 -4.2660217 4.706604 -11.271362 6.6517334 -21.01596l0 0c-0.5300293 8.318695 0.18487549 15.504669 2.1446533 21.557983c2.144165 6.576599 5.135559 9.864868 8.974121 9.864868c3.8535767 0 7.4072266 -3.288269 10.661011 -9.864868c3.2687988 -6.6127014 5.3079834 -14.526276 6.117737 -23.740692c0.8096924 -9.2144165 0.15740967 -17.055725 -1.9567871 -23.523895c-2.1141968 -6.46817 -5.090576 -9.70224 -8.929138 -9.70224c-3.8236084 0 -7.3847656 3.2340698 -10.683533 9.70224c-1.4700928 2.866455 -2.6929932 6.012848 -3.6687622 9.439087l0 0c0.23016357 -1.7036438 0.45526123 -3.4588013 0.67523193 -5.2654724l0 0c-3.4337158 3.7218933 -5.412964 5.7815857 -5.937744 6.179077c-0.5247803 0.39749146 -1.364502 0.5962219 -2.519043 0.5962219c-1.2895508 0 -2.0542603 -0.3071289 -2.2941895 -0.92144775c-0.22491455 -0.61428833 -0.23236084 -2.0958557 -0.022460938 -4.4446106c0.2849121 -3.1798706 0.71221924 -6.197113 1.2819824 -9.051819l21.43451 -121.79303l-25.797852 0l-19.702576 112.14499c-1.6793823 7.98584 -3.411255 14.002319 -5.1955566 18.049438c-1.7843628 4.0109863 -3.5236816 6.0164795 -5.2180786 6.0164795c-0.83966064 0 -1.0346069 -2.5655823 -0.58477783 -7.696747c0.2098999 -2.3487854 0.5247803 -4.625305 0.9446411 -6.829529l21.434448 -121.68463l-25.79779 0l-8.177856 46.5007l0 0c-2.9015503 2.449585 -5.4296265 3.8877563 -7.5841064 4.314575l0 0c2.4501953 -35.864273 -2.8084717 -53.796417 -15.776062 -53.796417z" fill-rule="evenodd"/><path stroke="#000000" stroke-width="4.0" stroke-linejoin="round" stroke-linecap="butt" d="m205.98248 129.69922l-20.242416 91.114426l15.451706 0l25.932785 -91.114426zm-21.861786 0.6504364c-7.9620056 0 -16.29889 4.3723297 -25.01062 13.117004c-8.696747 8.744675 -16.291412 20.34401 -22.78395 34.79802c-6.477585 14.453995 -10.421089 29.648758 -11.830574 45.584305c-1.1995392 13.695175 -0.5547714 23.668427 1.9342804 29.919785c2.489067 6.21521 7.5346756 9.322845 15.136818 9.322845c0.5398102 -6.106842 0.629776 -10.7682495 0.26989746 -13.984268c-0.35986328 -3.2160034 -0.22491455 -8.401382 0.40486145 -15.556107c1.4544525 -16.405304 4.190933 -30.172745 8.209412 -41.302322c4.033478 -11.129578 7.2797546 -17.796494 9.738846 -20.000717l0 0l-39.202797 221.74246l25.775337 0l46.287643 -262.39435c-4.588272 -0.8311157 -7.5646515 -1.2466583 -8.929153 -1.2466583zm67.02989 81.57477c-7.4072266 0 -12.167938 3.1979523 -14.28215 9.593857l2.3391266 -7.913574l-25.797836 0l-31.758087 180.38596l25.77533 0l19.747604 -112.14499c1.7093506 -8.274933 3.5011902 -14.634674 5.375473 -19.079285c1.8742981 -4.4446106 3.6436462 -6.6669006 5.308014 -6.6669006c0.8396759 0 1.0270996 2.5836487 0.5622864 7.750946c-0.19493103 2.3126526 -0.50231934 4.553009 -0.92214966 6.7211l-21.726852 123.41913l25.797821 0l19.747604 -112.14499c1.6793823 -8.058105 3.4337158 -14.291412 5.263031 -18.69986c1.8293152 -4.4446106 3.4786987 -6.666931 4.9481506 -6.666931c1.3944702 0 1.7993164 3.3424988 1.2145386 10.027466c-0.3748474 4.191681 -1.1995544 9.937134 -2.4740906 17.23642c-1.2595215 7.2992554 -2.5790405 14.761139 -3.958496 22.38562c-0.32989502 1.5538025 -1.0046387 5.149231 -2.0242615 10.786316c-1.0046082 5.6370544 -2.0167236 11.527039 -3.0363464 17.670013c-1.0196228 6.1429443 -1.7543335 11.761932 -2.2041626 16.856964c-1.0946045 12.43045 -0.6822815 22.963837 1.23703 31.600067c1.919281 8.6362915 5.802826 12.954407 11.650635 12.954407c4.6632385 0 8.981628 -3.4508972 12.955139 -10.352692c3.9884949 -6.9378967 7.572174 -21.970093 10.750977 -45.096466l0 0c-4.363373 6.179077 -7.3622437 9.268616 -8.996643 9.268616c-1.1245728 0 -1.8068237 -0.46975708 -2.0467224 -1.4092712c-0.23989868 -0.975647 -0.23242188 -2.8546448 0.022491455 -5.6370544c0.2848816 -3.288269 0.989624 -8.058105 2.1141968 -14.309448c1.1395874 -6.2513733 2.36911 -12.791809 3.6886292 -19.621307c2.2191467 -11.454834 4.0184937 -21.247406 5.3979797 -29.377777c1.3944702 -8.166504 2.3990784 -15.700653 3.013855 -22.602448c1.2895203 -14.70694 0.5997925 -25.81845 -2.0692139 -33.334534c-2.6690063 -7.516098 -6.73999 -11.274124 -12.212921 -11.274124c-8.786713 0 -15.159332 5.5467224 -19.117828 16.640167c0.19491577 -11.310257 -4.565796 -16.965393 -14.28215 -16.965393z" fill-rule="evenodd"/><path stroke="#000000" stroke-width="4.0" stroke-linejoin="round" stroke-linecap="butt" d="m453.89795 142.65363c-3.8535461 0 -7.4072266 3.3063507 -10.661011 9.919052c-3.2537842 6.576584 -5.2855225 14.472076 -6.095215 23.686508c-0.8246765 9.250565 -0.17993164 17.109924 1.9342651 23.57808c2.1142273 6.4320374 5.0906067 9.648056 8.929169 9.648056c3.8235474 0 7.384735 -3.2160187 10.683502 -9.648056c3.2987366 -6.4320374 5.3604736 -14.291397 6.1851807 -23.57808c0.8096924 -9.250565 0.14242554 -17.164139 -2.00177 -23.740707c-2.1441956 -6.5765686 -5.135559 -9.864853 -8.974121 -9.864853zm-39.52179 64.28418c-3.6436462 0 -6.672516 2.3307037 -9.086609 6.992111c-2.399109 4.6614227 -3.9210205 10.641754 -4.565796 17.94104c-0.494812 5.492508 -0.3298645 10.858566 0.49484253 16.098145c0.83966064 5.2034454 2.5865173 7.8051605 5.240509 7.8051605c0.7932739 0 1.8508911 -0.30578613 3.172882 -0.9173584l0 0c-2.3317566 9.647949 -4.9263 21.173645 -7.7836304 34.577118c-3.6436462 17.091858 -7.6096497 31.437439 -11.898041 43.036804c-4.288391 11.563202 -8.044495 17.344788 -11.26828 17.344788c-1.2145386 0 -1.7018738 -1.355072 -1.4619446 -4.0651855c0.17993164 -1.951294 0.7047119 -5.474457 1.5744019 -10.569489l21.389465 -121.57623l-25.797821 0l-19.702606 112.14499c-1.6793823 7.98584 -3.4112244 14.002319 -5.1955566 18.049438c-1.7843323 4.0109863 -3.5236816 6.0164795 -5.218048 6.0164795c-0.83969116 0 -1.0346069 -2.5655823 -0.58477783 -7.696747c0.20993042 -2.3487854 0.5248108 -4.625305 0.9446411 -6.829529l21.434479 -121.68463l-25.797821 0l-19.770111 112.416016c-1.6193848 9.358948 -2.6914673 17.055695 -3.216278 23.090271c-1.3345032 15.176697 -0.7272339 26.794098 1.8218079 34.852203c2.5640259 8.021973 6.4625854 12.032959 11.695618 12.032959c8.966644 0 15.684113 -6.558502 20.152435 -19.675507l0 0c-0.23989868 1.951294 1.1020813 5.7273865 4.026001 11.328308c2.9238892 5.564789 6.934906 8.3471985 12.0329895 8.3471985c9.626404 0 18.353119 -8.563995 26.180176 -25.691986c7.8270874 -17.164124 14.259674 -37.526184 19.29776 -61.086243c5.0381165 -23.560028 8.471832 -45.674652 10.301147 -66.34386c0.8546753 -9.756454 0.6972351 -18.175903 -0.47232056 -25.258377c-1.1695557 -7.1185913 -3.8160706 -10.677887 -7.939514 -10.677887zm128.76593 -61.19464l-27.304749 8.618195l-30.44574 172.26471l0 0c-1.7752991 7.654602 -3.5505981 13.216339 -5.325897 16.685242c-2.2191772 4.336212 -4.2809143 6.504303 -6.1851807 6.504303c-1.2895203 0 -2.046753 -0.3071289 -2.2716675 -0.92144775c-0.22491455 -0.61428833 -0.23239136 -2.0958557 -0.022491455 -4.4446106c0.2849121 -3.2160034 0.71224976 -6.2332764 1.2820435 -9.051819l16.711212 -94.583374l8.321899 0l4.6332397 -27.209656l-8.231903 0l9.558929 -53.87729l-27.259796 8.618195l-8.074463 45.259094l-4.610779 0l-4.6332703 27.209656l4.520813 0l-14.687073 83.0448l0 0c-1.9825745 9.094177 -3.965149 15.578247 -5.947754 19.452148c-2.2191772 4.336212 -4.280884 6.504303 -6.1851807 6.504303c-1.2895203 0 -2.0467224 -0.3071289 -2.271637 -0.92144775c-0.22491455 -0.61428833 -0.23242188 -2.0958557 -0.022491455 -4.4446106c0.2848816 -3.2160034 0.71221924 -6.251343 1.2820129 -9.106018l21.434448 -121.73883l-25.797821 0l-19.77008 112.416016c-1.6193848 9.358948 -2.6914978 17.055695 -3.2163086 23.090271c-1.3344727 15.176697 -0.72720337 26.794098 1.8218384 34.852203c2.5640259 8.021973 6.462555 12.032959 11.695618 12.032959c5.832794 0 12.085449 -4.6795044 18.757965 -14.038452c1.476593 -2.0664673 2.9674683 -4.675537 4.472595 -7.8272705l0 0c0.41607666 3.718628 1.0727539 6.996216 1.9700317 9.832764c2.5640564 8.021973 6.4625854 12.032959 11.695618 12.032959c4.997284 0 10.302765 -3.4348755 15.916412 -10.304626l0 0l-1.4667664 8.299133l25.797821 0l20.489838 -115.99338c1.5443726 -6.8656616 3.1712646 -12.159424 4.880615 -15.881317c1.7094116 -3.7580566 3.2388306 -5.637085 4.588318 -5.637085c1.3944702 0 1.7993164 3.3424988 1.2145386 10.027466c-0.37487793 4.191681 -1.199585 9.937134 -2.47406 17.23642c-1.2595215 7.2992554 -2.5790405 14.761139 -3.9585571 22.38562c-0.32983398 1.5538025 -1.0045776 5.149231 -2.024231 10.786316c-1.0045776 5.6370544 -2.0167236 11.527039 -3.036316 17.670013c-1.0196533 6.1429443 -1.7543945 11.761932 -2.2042236 16.856964c-1.0945435 12.43045 -0.682251 22.963837 1.2370605 31.600067c1.9342651 8.6362915 5.81781 12.954407 11.650635 12.954407c4.6782227 0 9.004089 -3.4508972 12.9776 -10.352692c3.9735107 -6.9378967 7.5496826 -21.970093 10.728516 -45.096466l0 0c-4.3634033 6.179077 -7.3622437 9.268616 -8.996643 9.268616c-1.1095581 0 -1.7843018 -0.46975708 -2.024231 -1.4092712c-0.2399292 -0.975647 -0.23242188 -2.8546448 0.022460938 -5.6370544c0.2849121 -3.288269 0.98968506 -8.058105 2.1142578 -14.309448c1.1395264 -6.2513733 2.3690796 -12.791809 3.6885986 -19.621307c2.2191772 -11.454834 4.0184937 -21.247406 5.397949 -29.377777c1.3944702 -8.166504 2.399109 -15.700653 3.013916 -22.602448c1.2894897 -14.70694 0.59228516 -25.81845 -2.0917358 -33.334534c-2.684021 -7.516098 -6.7474976 -11.274124 -12.19043 -11.274124c-7.0323486 0 -10.878418 0.81303406 -11.538208 2.4391022l12.392883 -68.94559z" fill-rule="evenodd"/><path stroke="#000000" stroke-width="4.0" stroke-linejoin="round" stroke-linecap="butt" d="m838.9685 128.34416l-28.54181 9.106018l-27.1698 179.62712l17.273499 0l38.43811 -188.73314zm-146.58453 116.42699c0.7797241 0 1.2745361 0.61428833 1.484436 1.8428802c0.22491455 1.1924591 0.24743652 3.2160187 0.06750488 6.070694c-3.013916 2.8185272 -5.060608 10.316528 -6.1401978 22.49405c-1.034668 11.6716 -0.4798584 18.121674 1.6643677 19.35028c-1.1845703 8.130371 -2.991394 17.164124 -5.420471 27.101257c-2.4290771 9.90097 -4.7682495 17.362854 -7.017395 22.38565c-2.2491455 4.986603 -4.0409546 7.4799194 -5.3754883 7.4799194c-1.649353 0 -2.6689453 -1.0298462 -3.058838 -3.0895386c-0.38983154 -2.0596924 -0.17993164 -7.714813 0.62976074 -16.965363c0.9446411 -10.659821 2.8864136 -23.108337 5.8253174 -37.34555c2.9389038 -14.273315 6.0652466 -26.053314 9.378967 -35.340027c3.3137817 -9.32283 5.9677734 -13.984253 7.962036 -13.984253zm-95.666565 169.58453c-1.4467163 8.043579 -2.8452148 13.848267 -4.1956177 17.414124c-1.3944702 3.7580566 -2.376587 5.6370544 -2.9464111 5.6370544c-0.6147461 0 -1.0421143 -0.39749146 -1.2819824 -1.1924438c-0.22491455 -0.7949524 -0.2849121 -1.752533 -0.17993164 -2.8727417c0.64453125 -7.3179016 3.5125122 -13.646545 8.603943 -18.985992zm97.55585 -203.73212c-9.4314575 0 -17.865784 7.2450714 -25.30304 21.735214c-7.42218 14.45401 -13.337463 31.347122 -17.745789 50.679337c-4.408386 19.296112 -7.3172607 36.875793 -8.726746 52.739044c-0.06665039 0.7584839 -0.12945557 1.509613 -0.18847656 2.253357l0 0c-1.9406128 7.155365 -3.7669678 12.5833435 -5.479004 16.283905c-2.9089355 6.287506 -4.775696 9.738373 -5.600403 10.352692l26.674988 -151.06241l-25.797852 0l-20.174927 114.04208c-1.5593872 7.0463257 -3.223755 12.502716 -4.993103 16.369171c-1.7693481 3.866455 -3.4187012 5.799652 -4.948181 5.799652c-0.83966064 0 -1.0346069 -2.5655823 -0.58477783 -7.696747c0.20996094 -2.3487854 0.5248413 -4.625305 0.9446411 -6.829529l21.43451 -121.68463l-25.797852 0l-19.77008 112.416016c-1.6193848 9.358948 -2.6914673 17.055695 -3.2163086 23.090271c-1.3344727 15.176697 -0.7272339 26.794098 1.8218384 34.852203c2.5640259 8.021973 6.4625854 12.032959 11.695618 12.032959c0.24572754 0 0.49194336 -0.008728027 0.73864746 -0.0262146l0 0c-1.5925293 2.0736694 -3.1582642 4.3046875 -4.6971436 6.693115c-5.5029907 8.600128 -8.914185 20.380157 -10.233704 35.340057c-1.1095581 12.719513 -0.17242432 22.43982 2.8114624 29.16095c2.9989014 6.7211 7.0323486 10.081665 12.100464 10.081665c6.3425903 0 12.4453125 -4.553009 18.308105 -13.659058c5.8778076 -9.069885 10.825989 -25.222229 14.844482 -48.45703l3.486145 -19.783905c4.8881836 -2.890808 10.076233 -9.340912 15.564209 -19.350311c0.5629883 -1.0277405 1.1274414 -2.1440125 1.6932373 -3.3487854l0 0c0.5800171 3.0473022 1.3274536 5.7716064 2.2423706 8.172821c3.7036133 9.684174 9.326538 14.526276 16.868652 14.526276c6.237671 0 12.370361 -4.49881 18.398132 -13.496429c6.0427246 -8.99762 11.37323 -21.500336 15.991516 -37.50815c4.6332397 -16.007812 8.044495 -32.75638 10.233643 -50.245728c1.6686401 -0.62213135 3.4298096 -1.5629272 5.2835693 -2.8222961l0 0l-6.110901 34.74759c-1.6193848 9.358948 -2.6915283 17.055695 -3.2163086 23.090271c-1.3344727 15.176697 -0.7272339 26.794098 1.8218384 34.852203c2.5640259 8.021973 6.4625244 12.032959 11.695618 12.032959c4.168396 0 8.419312 -2.4933167 12.752686 -7.47995c4.2478027 -4.906555 7.0217896 -9.95108 8.32196 -15.133575l0 0c-0.3474121 1.9283752 0.54473877 6.069519 2.6764526 12.423462c2.2791138 6.7933655 5.742798 10.190063 10.391052 10.190063c4.8432007 0 9.281555 -3.4689636 13.315002 -10.406891c2.48938 -4.2660217 4.706604 -11.271362 6.6517334 -21.01596l0 0c-0.5300293 8.318695 0.18487549 15.504669 2.1446533 21.557983c2.144165 6.576599 5.135559 9.864868 8.974121 9.864868c3.8535767 0 7.4072266 -3.288269 10.661011 -9.864868c3.2687988 -6.6127014 5.3079834 -14.526276 6.117737 -23.740692c0.8096924 -9.2144165 0.15740967 -17.055725 -1.9567871 -23.523895c-2.1141968 -6.46817 -5.090576 -9.70224 -8.929138 -9.70224c-3.8236084 0 -7.3847656 3.2340698 -10.683533 9.70224c-1.4700928 2.866455 -2.6929932 6.012848 -3.6687622 9.439087l0 0c0.23016357 -1.7036438 0.45526123 -3.4588013 0.67523193 -5.2654724l0 0c-3.4337158 3.7218933 -5.412964 5.7815857 -5.937744 6.179077c-0.5247803 0.39749146 -1.364502 0.5962219 -2.519043 0.5962219c-1.2895508 0 -2.0542603 -0.3071289 -2.2941895 -0.92144775c-0.22491455 -0.61428833 -0.23236084 -2.0958557 -0.022460938 -4.4446106c0.2849121 -3.1798706 0.71221924 -6.197113 1.2819824 -9.051819l21.43451 -121.79303l-25.797852 0l-19.702576 112.14499c-1.6793823 7.98584 -3.411255 14.002319 -5.1955566 18.049438c-1.7843628 4.0109863 -3.5236816 6.0164795 -5.2180786 6.0164795c-0.83966064 0 -1.0346069 -2.5655823 -0.58477783 -7.696747c0.2098999 -2.3487854 0.5247803 -4.625305 0.9446411 -6.829529l21.434448 -121.68463l-25.79779 0l-8.177856 46.5007l0 0c-2.9015503 2.449585 -5.4296265 3.8877563 -7.5841064 4.314575l0 0c2.4501953 -35.864273 -2.8084717 -53.796417 -15.776062 -53.796417z" fill-rule="evenodd"/></g></g></svg>
